<svg id="Layer_1" data-name="Layer 1" xmlns="http://www.w3.org/2000/svg" viewBox="0 0 1700 1000"><defs><style>.cls-1,.cls-2{stroke:#000;stroke-miterlimit:10;stroke-width:4px;}.cls-2{fill:none;}.cls-3,.cls-4{font-size:561.41px;font-family:SegoeUI-Light, Segoe UI;}.cls-3,.cls-5{letter-spacing:0.2em;}.cls-4{letter-spacing:0.18em;}</style></defs><title>Artboard 1</title><rect class="cls-1" x="269.79" y="81.38" width="242.91" height="574.85" transform="translate(163.02 -118.02) rotate(21.57)"/><polyline class="cls-2" points="62.35 782.75 403.68 679.74 620.28 124.96 814.65 124.96 807.94 453.29 286.26 902.84 53.09 902.84"/><line class="cls-2" x1="55.11" y1="905.22" x2="56.47" y2="782.58"/><rect class="cls-1" x="103.65" y="458.02" width="242.91" height="293.33" transform="translate(742.75 219.52) rotate(73.77)"/><rect x="3.99" y="559.45" width="242.91" height="142.65" transform="translate(696 333.99) rotate(73.77)"/><polyline class="cls-1" points="26.97 550.67 23.03 792.73 227.86 730.38"/><polyline points="23 534.66 23.03 794.68 133.19 641.15"/><polyline class="cls-1" points="383.98 56.86 646.31 59.57 593.8 186.82"/><line class="cls-2" x1="55.96" y1="785.09" x2="71.32" y2="780.07"/><text class="cls-3" transform="translate(908.86 465.91)">CR</text><text class="cls-4" transform="translate(892.17 895.03)">A<tspan class="cls-5" x="454.68" y="0">G</tspan></text></svg>