<svg id="Layer_1" data-name="Layer 1" xmlns="http://www.w3.org/2000/svg" viewBox="0 0 1700 1000"><defs><style>.cls-1,.cls-3{fill:#fff;}.cls-1,.cls-2,.cls-3{stroke:#fff;stroke-miterlimit:10;}.cls-1,.cls-2{stroke-width:4px;}.cls-2{fill:none;}.cls-4,.cls-5{font-size:502px;fill:#f2f2f2;font-family:SegoeUI-Light, Segoe UI;}.cls-4{letter-spacing:0.2em;}.cls-5{letter-spacing:0.18em;}.cls-6{letter-spacing:0.2em;}</style></defs><title>Artboard 1</title><rect class="cls-1" x="309.58" y="130.32" width="217.2" height="514.01" transform="translate(171.71 -126.63) rotate(21.57)"/><polyline class="cls-2" points="124.1 757.46 429.3 665.35 622.98 169.28 796.78 169.28 790.78 462.86 324.31 864.84 115.82 864.84"/><line class="cls-1" x1="117.62" y1="866.97" x2="118.84" y2="757.31"/><rect class="cls-1" x="161.03" y="467.1" width="217.2" height="262.29" transform="translate(768.64 172.12) rotate(73.77)"/><rect class="cls-3" x="71.92" y="557.79" width="217.2" height="127.55" transform="translate(726.84 274.49) rotate(73.77)"/><polyline class="cls-1" points="92.46 549.94 88.94 766.38 272.1 710.63"/><polyline class="cls-3" points="88.91 535.63 88.94 768.13 187.44 630.85"/><polyline class="cls-1" points="411.69 108.39 646.26 110.81 599.31 224.6"/><line class="cls-1" x1="118.38" y1="759.55" x2="132.12" y2="755.06"/><text class="cls-4" transform="translate(852.44 475.29)">CR</text><text class="cls-5" transform="translate(837.51 858.99)">A<tspan class="cls-6" x="406.56" y="0">G</tspan></text></svg>